# xmcd
#
# Track frame offsets: 
#        150
#        11835
#        22450
#        35775
#        46313
#        56988
#        69190
#        79385
#        92603
#        103980
#
# Disc length: 1508 seconds
#
# Revision: 5
# Processed by: cddbd v1.5.2PL0 Copyright (c) Steve Scherf et al.
# Submitted via: ExactAudioCopy v0.99pb3
#
DISCID=8f05e20a
DTITLE=Various Artist - Billboard Top Country Hits - 1966
DYEAR=1990
DGENRE=Country
TTITLE0=Jack Greene - There Goes My Everything
TTITLE1=Bill Anderson - I Get The Fever
TTITLE2=David Houston - Almost Persuaded
TTITLE3=Buck Owens  and The Buckaroos - Waitin' In Your Welfare Line
TTITLE4=The Statler Brothers - Flowers On The Wall
TTITLE5=Eddy Arnold - I Want To Go With You
TTITLE6=Loretta Lynn - You Ain't Woman Enough
TTITLE7=Jim Reeves - Distant Drums
TTITLE8=Sonny James - Take Good Care Of Her
TTITLE9=The Harden Trio - Tippy Toeing
EXTD=YEAR: 1990
EXTT0=
EXTT1=
EXTT2=
EXTT3=
EXTT4=
EXTT5=
EXTT6=
EXTT7=
EXTT8=
EXTT9=
PLAYORDER=
